<svg xmlns="http://www.w3.org/2000/svg" viewBox="0 0 106.07 131.25"><defs><style>.cls-1{fill:#b9d987;}.cls-2{fill:#c5e0a1;}.cls-3{fill:#cad8b6;}.cls-4{fill:#f8bbc8;}.cls-5{fill:#231f20;}.cls-6{fill:#f59db4;}.cls-7{fill:#f6a4bc;}.cls-8{fill:#fff;}</style></defs><g id="Layer_2" data-name="Layer 2"><g id="Hyperinflationo"><g id="piggybank"><rect id="dollar-far" class="cls-1" x="30.73" y="1.52" width="28.15" height="57.67" transform="translate(4.1 -5.31) rotate(7.11)"/><polygon id="dollar-mid" class="cls-2" points="58.63 53.67 30.64 56.67 25.9 12.5 25.74 11.04 53.72 8.03 58.63 53.67"/><rect id="dollar-near" class="cls-3" x="29.81" y="17.51" width="28.15" height="45.9" transform="translate(13.49 -10.91) rotate(16.71)"/><g id="pig"><path class="cls-4" d="M6.85,122.3c-.48-.23,2.48-5.14,2.26-10.35s-.81-6.09-3.54-13.46S-1.83,81.39.75,70.23,10,46.39,25.23,40c2.24-1.29,15.23-5.56,25.57-4.92,0,0,20.26,1.13,32.66,12.89S96.84,68.69,96.84,68.69s2.94,17.29-7,31.79c0,0-10.44,6.7-10.44,12.18a28.38,28.38,0,0,0,1.82,9.85S79.92,127,67.67,122a1.39,1.39,0,0,1-.86-1.26l0-4.12s-6.11,1.63-7.86,1.49-.54,7.78,0,11.18c.46,3.13-18.65,2.17-19.77-.63s1.11-5.5.22-9.85c0,0-10.5-.16-17.64-4.08-1.27-.76.61,6.67-1.32,8.06S12.5,125.32,6.85,122.3Z"/><path id="pig-right-eye" class="cls-5" d="M83.63,64.28c1.49-1.3,4.77,3.8,3.26,4.77S82.4,65.6,83.63,64.28Z"/><path id="pig-left-eye" class="cls-5" d="M92.72,63.55c1.7-.83,2.36,4.7,1.54,5S91.73,64.16,92.72,63.55Z"/><g id="pig-nose"><g id="pig-nose-back"><path class="cls-6" d="M92.79,68.53s10.73,3,9,15.82-9.2,14.4-14.33,13-6.74-10.48-5.08-19.08S91.07,68.16,92.79,68.53Z"/><polyline class="cls-6" points="96.64 68.94 94.11 98.19 89.24 97.69 92.42 68.49 96.64 68.94"/></g><g id="pig-nose-front"><path class="cls-7" d="M96.89,69s10.73,3,9,15.82-9.2,14.4-14.33,13S84.81,87.3,86.47,78.71,95.17,68.61,96.89,69Z"/><path class="cls-5" d="M104,81.47s.54,3.22,0,3.76C104,85.23,103,83,104,81.47Z"/><path class="cls-5" d="M94.83,82.43s-1.57,1.35-.58,4.14C94.25,86.57,95,86,94.83,82.43Z"/></g></g><g id="pig-right-ear"><path class="cls-4" d="M82.86,47.4s3.64-5.75,6.51-10.82-3.05-11.15-5-10.59-14.61,9.33-14.61,9.33l1.77,7.83L82.85,47.6"/><path class="cls-7" d="M86.93,27.21s-11.84,12.47-4,20.31c0,0,3.64-5.75,6.51-10.82S87.36,27,86.93,27.21"/></g><g id="pig-left-ear"><path class="cls-4" d="M41.56,44.09S58.93,23.17,63.85,24.78c2.59.85,4.58,5.94,5.88,10.54,1.16,4.11,1.77,7.83,1.77,7.83s-9.92-3.31-15.26,4.72C53.5,52.36,41.56,44.09,41.56,44.09Z"/><path class="cls-7" d="M54.57,49.2s4.48-20.89,8.73-20.89,8.26,15,8.26,15S60.14,39.89,54.57,49.2Z"/></g><g id="pig-light"><path class="cls-8" d="M33.82,41.66c1.78-.44,3.54-1,5.33-1.37a25.46,25.46,0,0,1,5.22-.54,1.25,1.25,0,0,0,0-2.5,30.19,30.19,0,0,0-5.76.6c-1.83.39-3.63.95-5.45,1.4a1.25,1.25,0,0,0,.66,2.41Z"/><path class="cls-8" d="M29.84,42.77a1.25,1.25,0,0,0,0-2.5,1.25,1.25,0,0,0,0,2.5Z"/></g></g></g></g></g></svg>