<svg xmlns="http://www.w3.org/2000/svg" viewBox="0 0 106.07 232.05"><defs><style>.a80c4c77-fbfd-4310-96d0-a1f5bec2bd93{opacity:0;}.b5fbba53-ea7d-48cf-a392-6e882c68945d{fill:#dc5b5c;}.aed3e356-691d-462a-baff-7f39508a9bb6{fill:#ffefdc;}.ea9a2baf-4ac7-4ad3-b13d-460bc97758ef{fill:#fffeff;}.ea92d3bd-4af7-415d-82f0-bd828ad22871{fill:#b9d987;}.b4d116be-feac-425c-9539-2300ffe11b2c{fill:#c5e0a1;}.af137e6a-4306-425a-987f-0fcac821159f{fill:#cad8b6;}.b6efc457-4162-4387-9c86-f78ebc50a42c{fill:#f8bbc8;}.f836f7a1-173f-40ed-bf17-da8c191dae63{fill:#231f20;}.fef91b06-8463-445e-b12c-1c5ec738da99{fill:#f59db4;}.a4629f66-8d62-4bf9-a6c9-9692a3b44e4e{fill:#f6a4bc;}.e6792f08-23b1-47b0-b000-ce3b0d4319b0{fill:#fff;}.a3cbf670-82bc-4c57-a32b-5b7980a9b778{fill:#efb085;}.b000120c-8f52-4a30-aadd-7096ac4602e2{fill:#f4e39c;}</style></defs><g id="bf646e4f-a5bc-420c-930a-3f7c51fa75c5" data-name="Layer 2"><g id="bce22a23-a9a8-4ccb-bf0a-21000ceb4493" data-name="Hyperinflationo"><g id="e2ddd47b-2fff-4ef4-9bb1-5baaf864564f" data-name="roasty" class="a80c4c77-fbfd-4310-96d0-a1f5bec2bd93"><g id="aaf7e052-216a-4d72-9b9f-76b814f2bbdf" data-name="bacon-top"><path id="e9511407-de80-42d1-84b2-a615a6cf9c0f" data-name="bacon-bot-lean" class="b5fbba53-ea7d-48cf-a392-6e882c68945d" d="M15.5,187.52,14,190.9l2.52,2.67-2.3,1.92,1.24,2.93a36.89,36.89,0,0,0,7.34,3.42c3.12.84,7.67-1,11.36,0s7,3.85,11.17,5,7.69-1.5,10.54-.72,7.8,4.93,12,6.06,5.62-1.73,5.62-1.73L72.55,209a27.2,27.2,0,0,1,2.36-2.24l-1.27-2.33a2.15,2.15,0,0,0,1-2.84l-.31-.81s-4.82,2.3-9.26,1.09-6.42-5.34-9.72-6.24-7,3.69-10.35,2.79-5.37-5.62-10.09-6.9-9.88.67-12.85-.14S15.5,187.52,15.5,187.52Z"/><path id="f66bf977-ddbd-4c48-8d5c-8b06f71c8cf1" data-name="bacon-top-fat" class="aed3e356-691d-462a-baff-7f39508a9bb6" d="M14,191l1.08,3-.86,1.63S19.9,200,24.5,200.11s5.79-1.18,9.9.11,9.12,5.25,12,5.36,4.89-2,8.84-1,10.69,5.81,13,5.93a7.59,7.59,0,0,0,4.33-1.4l2.36-2.24-1.27-2.33a16.42,16.42,0,0,1-11.07-.21c-6-2.25-5.16-4.8-8.6-5s-5.65,2.77-8.85,2.34-6.4-6.55-11.91-7.13-10.71.49-11.95.32A13.29,13.29,0,0,1,14,191Z"/></g><g id="b3ea6de4-659d-41ac-bdeb-13ad84afbde1" data-name="bacon-bot"><path id="f2465b90-b7a5-4f1c-a212-319e5f779e28" data-name="bacon-bot-lean" class="b5fbba53-ea7d-48cf-a392-6e882c68945d" d="M24.82,207.12l-1.53,3.38,2.52,2.67-2.3,1.92L24.74,218a36.78,36.78,0,0,0,7.35,3.42c3.12.84,7.67-1,11.35,0s7,3.85,11.17,5,7.69-1.5,10.55-.72,7.79,4.93,11.94,6.06,5.63-1.73,5.63-1.73l-.86-1.47a27.2,27.2,0,0,1,2.36-2.24L83,224a2.15,2.15,0,0,0,.94-2.84l-.3-.81s-4.83,2.3-9.27,1.09-6.41-5.34-9.72-6.24-7,3.69-10.34,2.79-5.37-5.62-10.1-6.9-9.88.67-12.85-.14S24.82,207.12,24.82,207.12Z"/><path id="bae83e20-ad50-47a3-baf9-b257bed0f2b0" data-name="bacon-bot-fat" class="aed3e356-691d-462a-baff-7f39508a9bb6" d="M23.29,210.5l1.08,3-.86,1.62s5.7,4.36,10.31,4.49,5.78-1.18,9.9.1,9.11,5.25,12,5.37,4.9-2,8.85-1,10.68,5.81,13,5.93a7.63,7.63,0,0,0,4.34-1.4l2.36-2.24L83,224a16.43,16.43,0,0,1-11.07-.21c-6-2.25-5.16-4.8-8.6-5s-5.66,2.77-8.85,2.34-6.4-6.55-11.91-7.14-10.72.5-12,.33A13.29,13.29,0,0,1,23.29,210.5Z"/></g><ellipse id="a275861e-a946-4692-841b-ddd3dbb31c6e" data-name="coin" class="ea9a2baf-4ac7-4ad3-b13d-460bc97758ef" cx="13.97" cy="207.12" rx="4.23" ry="7.24" transform="translate(-188.41 160.94) rotate(-73.29)"/></g><g id="f2d3a14f-7ccb-479f-a5f1-765e237df3b7" data-name="piggybank"><rect id="ff3112f4-a87e-4177-856b-a5a2e4cda56e" data-name="dollar-far" class="ea92d3bd-4af7-415d-82f0-bd828ad22871" x="30.73" y="99.46" width="28.15" height="57.67" transform="translate(16.23 -4.56) rotate(7.11)"/><polygon id="a20b19b8-348a-4ee7-a62b-0a7a43cd4ebd" data-name="dollar-mid" class="b4d116be-feac-425c-9539-2300ffe11b2c" points="58.63 151.6 30.64 154.61 25.9 110.44 25.74 108.97 53.72 105.96 58.63 151.6"/><rect id="e9240287-e506-4870-9678-9406adc58b71" data-name="dollar-near" class="af137e6a-4306-425a-987f-0fcac821159f" x="29.81" y="115.44" width="28.15" height="45.9" transform="translate(41.65 -6.77) rotate(16.71)"/><g id="b74a50fd-2000-43a5-b0ec-3914ad84ab95" data-name="pig"><path id="a722e1fb-d177-4fd2-8c3f-16af52b28f97" data-name="pig-body" class="b6efc457-4162-4387-9c86-f78ebc50a42c" d="M6.85,220.23c-.48-.23,2.48-5.13,2.26-10.34s-.81-6.09-3.54-13.46-7.4-17.11-4.82-28.26S10,144.33,25.23,137.92c2.24-1.29,15.23-5.56,25.57-4.92,0,0,20.26,1.13,32.66,12.89s13.38,20.74,13.38,20.74,2.94,17.29-7,31.78c0,0-10.44,6.71-10.44,12.19a28.29,28.29,0,0,0,1.82,9.84s-1.33,4.45-13.58-.49a1.4,1.4,0,0,1-.86-1.26l0-4.13s-6.11,1.63-7.86,1.49-.54,7.79,0,11.18c.46,3.14-18.65,2.17-19.77-.62s1.11-5.5.22-9.85c0,0-10.5-.17-17.64-4.08-1.27-.76.61,6.67-1.32,8.06S12.5,223.25,6.85,220.23Z"/><path id="ba9965a2-c6d4-4560-baff-0c422f283957" data-name="pig-right-eye" class="f836f7a1-173f-40ed-bf17-da8c191dae63" d="M83.63,162.22c1.49-1.3,4.77,3.8,3.26,4.77S82.4,163.54,83.63,162.22Z"/><path id="abb1c230-61e6-4483-aee5-dfef77786969" data-name="pig-left-eye" class="f836f7a1-173f-40ed-bf17-da8c191dae63" d="M92.72,161.48c1.7-.82,2.36,4.7,1.54,5S91.73,162.1,92.72,161.48Z"/><g id="aa7074f1-4dbc-4fee-aaa7-db187704e2da" data-name="pig-nose"><g id="ebea8c9e-1155-4bed-afaf-ebb619528e30" data-name="pig-nose-back"><path class="fef91b06-8463-445e-b12c-1c5ec738da99" d="M92.79,166.47s10.73,3,9,15.82-9.2,14.39-14.33,13-6.74-10.48-5.08-19.07S91.07,166.09,92.79,166.47Z"/><polyline class="fef91b06-8463-445e-b12c-1c5ec738da99" points="96.64 166.88 94.11 196.12 89.24 195.62 92.42 166.42 96.64 166.88"/></g><g id="f61f2941-c4bf-484e-8cb6-050af736de37" data-name="pig-nose-front"><path class="a4629f66-8d62-4bf9-a6c9-9692a3b44e4e" d="M96.89,166.92s10.73,3,9,15.81-9.2,14.4-14.33,13-6.74-10.48-5.08-19.08S95.17,166.54,96.89,166.92Z"/><path class="f836f7a1-173f-40ed-bf17-da8c191dae63" d="M104,179.41s.54,3.21,0,3.75C104,183.16,103,180.92,104,179.41Z"/><path class="f836f7a1-173f-40ed-bf17-da8c191dae63" d="M94.83,180.37s-1.57,1.34-.58,4.14C94.25,184.51,95,184,94.83,180.37Z"/></g></g><g id="e00e795e-b07c-4707-8df2-5f6a89a3138d" data-name="pig-right-ear"><path class="b6efc457-4162-4387-9c86-f78ebc50a42c" d="M82.86,145.34s3.64-5.76,6.51-10.82-3.05-11.16-5-10.59-14.61,9.33-14.61,9.33l1.77,7.82,11.35,4.45"/><path class="a4629f66-8d62-4bf9-a6c9-9692a3b44e4e" d="M86.93,125.14s-11.84,12.48-4,20.32c0,0,3.64-5.76,6.51-10.82s-2.08-9.66-2.51-9.5"/></g><g id="b17e7f05-5558-497c-8899-ef4fa118ce8c" data-name="pig-left-ear"><path class="b6efc457-4162-4387-9c86-f78ebc50a42c" d="M41.56,142s17.37-20.92,22.29-19.32c2.59.85,4.58,5.94,5.88,10.55a79.76,79.76,0,0,1,1.77,7.82s-9.92-3.3-15.26,4.73C53.5,150.29,41.56,142,41.56,142Z"/><path class="a4629f66-8d62-4bf9-a6c9-9692a3b44e4e" d="M54.57,147.14s4.48-20.9,8.73-20.9,8.26,15,8.26,15S60.14,137.83,54.57,147.14Z"/></g><g id="f3bc5903-9df5-4f29-9c0e-8c71babeb400" data-name="pig-light"><path class="e6792f08-23b1-47b0-b000-ce3b0d4319b0" d="M33.82,139.6c1.78-.45,3.54-1,5.33-1.38a26.18,26.18,0,0,1,5.22-.53,1.25,1.25,0,0,0,0-2.5,31,31,0,0,0-5.76.59c-1.83.4-3.63.95-5.45,1.41a1.25,1.25,0,0,0,.66,2.41Z"/><path class="e6792f08-23b1-47b0-b000-ce3b0d4319b0" d="M29.84,140.71a1.25,1.25,0,0,0,0-2.5,1.25,1.25,0,0,0,0,2.5Z"/></g></g></g><g id="e6317ada-31c5-44d8-a266-c72c9ac8b81b" data-name="fire" class="a80c4c77-fbfd-4310-96d0-a1f5bec2bd93"><path id="fa0adc88-0fc0-4f5d-bf4a-910f750fa72b" data-name="fire-outer" class="a3cbf670-82bc-4c57-a32b-5b7980a9b778" d="M86.24,46.36a35.52,35.52,0,0,0,0,14.44c1.59,8.56-2.12,19.46-8.83,28.91S67.48,103.14,53.89,104s-29-2.79-35.73-18.15S10,47.6,19.72,38.4c0,0-1.13,8,7.08,13,0,0-4.73-38.66,29.83-51.44C56.63,0,51,10.35,65,29.86A59.87,59.87,0,0,1,76.09,61.59S76.58,52.76,86.24,46.36Z"/><path id="a71bb4cb-4a16-47c4-b174-c4766854c0bf" data-name="fire-inner" class="b000120c-8f52-4a30-aadd-7096ac4602e2" d="M35.75,72.23S17.57,101.94,52.61,104C70.09,104,70,83.17,65.41,75.41S44.67,57.58,48.11,38.07c0,0-13.64,17.61-8,32.44S41.4,81.43,41.4,81.43,35.66,76.33,35.75,72.23Z"/></g></g></g></svg>