<svg xmlns="http://www.w3.org/2000/svg" viewBox="0 0 218.93 20.11"><defs><style>.b8e22921-f8d3-4f66-9172-569738ca1363{fill:#fff;}.f5d21297-2822-4feb-8c89-6c4e23aa9e84{opacity:0;}.a659c53d-5f86-491e-8669-01bcffe632b1{fill:#a0d39b;}</style></defs><g id="ac5a411e-5abc-41e7-9066-5efd4dccf637" data-name="Layer 2"><g id="b4d154c3-1066-4d4a-be98-8b0dbf8fbf8f" data-name="Hyperinflationo"><g id="f837f8e8-d6cc-4a39-a3ed-0df6f737f031" data-name="treaty-of-versailles"><g id="eaf4e976-5a0d-451d-938f-197735120887" data-name="of"><path class="b8e22921-f8d3-4f66-9172-569738ca1363" d="M79.5,14.09a4.15,4.15,0,1,1,4.14,4.13A4.16,4.16,0,0,1,79.5,14.09Zm7,0a2.88,2.88,0,1,0-2.88,2.86A2.89,2.89,0,0,0,86.52,14.08Z"/><path class="b8e22921-f8d3-4f66-9172-569738ca1363" d="M90.2,11.3v2.15h3V14.7h-3v3.4H88.94v-8h4.77V11.3Z"/></g><path id="b049ee7d-da61-4e07-af47-bd014236e322" data-name="backstab" class="b8e22921-f8d3-4f66-9172-569738ca1363" d="M114.45,2.34l-7.26,16.07H107L99.79,2.34h2.62L107.1,13l4.71-10.66Z"/><path id="b68f7279-7ea0-4176-868b-8051d70529ba" data-name="biga" class="b8e22921-f8d3-4f66-9172-569738ca1363" d="M162.9,15.69h-7.45l-1.07,2.4H151.7L159.1,2h.15l7.4,16.07H164Zm-1-2.12-2.76-6.15-2.77,6.15Z"/><g id="f1e3f495-7aa4-4285-a372-a2fdbb8e5617" data-name="ailles"><path class="b8e22921-f8d3-4f66-9172-569738ca1363" d="M168.4,2.34h2.47V18.09H168.4Z"/><path class="b8e22921-f8d3-4f66-9172-569738ca1363" d="M183.39,15.63v2.46H173.9V2.34h2.47V15.63Z"/><path class="b8e22921-f8d3-4f66-9172-569738ca1363" d="M194.85,15.63v2.46h-9.49V2.34h2.47V15.63Z"/><path class="b8e22921-f8d3-4f66-9172-569738ca1363" d="M199.3,4.78v4h5.95v2.46H199.3v4.36h6.9v2.46h-9.37V2.34h9.37V4.78Z"/><path class="b8e22921-f8d3-4f66-9172-569738ca1363" d="M207.86,15.32l2-1.39a3.93,3.93,0,0,0,3.52,1.93c1.77,0,3.11-.85,3.11-2,0-1.46-2.07-2.34-3.91-3.13s-3.9-1.77-3.9-4.24,2.24-4.38,5.07-4.38a4.56,4.56,0,0,1,4.57,2.81l-1.83,1.27a3,3,0,0,0-2.72-1.66,2.36,2.36,0,0,0-2.6,2c0,1.23,1.46,1.67,3.37,2.49,2.49,1.1,4.43,2.3,4.43,4.78,0,2.79-2.43,4.59-5.62,4.59A5.8,5.8,0,0,1,207.86,15.32Z"/></g><g id="e3a10017-e3ca-454d-a959-2eb1d68fa33f" data-name="treaty"><path class="b8e22921-f8d3-4f66-9172-569738ca1363" d="M10.92,4.8H6.7V18.09H4.22V4.8H0V2.34H10.92Z"/><path class="b8e22921-f8d3-4f66-9172-569738ca1363" d="M21.53,18.09,17.29,12H15.36v6.1H12.89V2.34h4.89A5.21,5.21,0,0,1,23.11,7.4,4.62,4.62,0,0,1,20,11.79l4.58,6.3Zm-3.7-8.15a2.69,2.69,0,0,0,2.73-2.6A2.63,2.63,0,0,0,17.83,4.8H15.35V9.94Z"/><path class="b8e22921-f8d3-4f66-9172-569738ca1363" d="M28.7,4.78v4h6v2.46h-6v4.36h6.91v2.46H26.23V2.34h9.38V4.78Z"/><path class="b8e22921-f8d3-4f66-9172-569738ca1363" d="M48.09,15.69H40.63l-1.07,2.4H36.88L44.29,2h.14l7.41,16.07H49.16Zm-1-2.12L44.37,7.42l-2.78,6.15Z"/><path class="b8e22921-f8d3-4f66-9172-569738ca1363" d="M61.49,4.8H57.28V18.09H54.79V4.8H50.58V2.34H61.49Z"/><path class="b8e22921-f8d3-4f66-9172-569738ca1363" d="M67.39,11.36l-5.22-9H65l3.66,6.27,3.68-6.27h2.78l-5.23,9v6.73H67.39Z"/></g><g id="b375da55-6344-415d-8a04-62a5cf3b94da" data-name="er"><path class="b8e22921-f8d3-4f66-9172-569738ca1363" d="M118.67,4.78v4h6v2.46h-6v4.36h6.91v2.46H116.2V2.34h9.38V4.78Z"/><path class="b8e22921-f8d3-4f66-9172-569738ca1363" d="M136.8,18.09,132.56,12h-1.93v6.1h-2.47V2.34H133a5.21,5.21,0,0,1,5.33,5.06,4.62,4.62,0,0,1-3.12,4.39l4.58,6.3Zm-3.7-8.15a2.69,2.69,0,0,0,2.72-2.6A2.62,2.62,0,0,0,133.1,4.8h-2.48V9.94Z"/></g><g id="a5ab0573-5d78-41c4-af7c-7b1f52a201c2" data-name="money"><path class="b8e22921-f8d3-4f66-9172-569738ca1363" d="M140.59,15.32l1.95-1.39a3.94,3.94,0,0,0,3.53,1.93c1.76,0,3.1-.85,3.1-2,0-1.46-2.07-2.34-3.91-3.13s-3.89-1.77-3.89-4.24,2.23-4.38,5.07-4.38A4.58,4.58,0,0,1,151,4.87l-1.84,1.27a2.94,2.94,0,0,0-2.71-1.66,2.35,2.35,0,0,0-2.6,2c0,1.23,1.45,1.67,3.37,2.49,2.49,1.1,4.42,2.3,4.42,4.78,0,2.79-2.42,4.59-5.61,4.59A5.8,5.8,0,0,1,140.59,15.32Z"/><g class="f5d21297-2822-4feb-8c89-6c4e23aa9e84"><rect class="a659c53d-5f86-491e-8669-01bcffe632b1" x="145.59" width="1.59" height="20.11"/></g></g></g></g></g></svg>